<svg xmlns="http://www.w3.org/2000/svg" width="47" height="47" viewBox="0 0 47 47">
  <g id="Group_54" data-name="Group 54" transform="translate(0 -0.033)">
    <circle id="Ellipse_3" data-name="Ellipse 3" cx="23.5" cy="23.5" r="23.5" transform="translate(0 0.033)" fill="#00c300"/>
    <g id="Group_52" data-name="Group 52" transform="translate(11.159 11.854)">
      <g id="TYPE_A" data-name="TYPE A" transform="translate(0)">
        <g id="Group_51" data-name="Group 51">
          <path id="Path_69" data-name="Path 69" d="M405.229,271.465c0-5.413-5.427-9.817-12.1-9.817s-12.1,4.4-12.1,9.817c0,4.853,4.3,8.917,10.117,9.685.394.085.93.26,1.066.6a2.486,2.486,0,0,1,.039,1.094s-.142.854-.172,1.035c-.053.306-.243,1.2,1.048.652a39.069,39.069,0,0,0,9.5-7.023h0a8.734,8.734,0,0,0,2.593-6.04" transform="translate(-381.035 -261.648)" fill="#fff"/>
          <g id="Group_50" data-name="Group 50" transform="translate(3.968 7.201)">
            <path id="Path_70" data-name="Path 70" d="M410.343,285.4h-.849a.236.236,0,0,0-.236.235v5.271a.236.236,0,0,0,.236.235h.849a.235.235,0,0,0,.236-.235V285.64a.235.235,0,0,0-.236-.235" transform="translate(-404.672 -285.405)" fill="#00c300"/>
            <path id="Path_71" data-name="Path 71" d="M421.115,285.4h-.848a.235.235,0,0,0-.236.235v3.132l-2.416-3.262a.237.237,0,0,0-.018-.024l0,0-.014-.015,0,0-.013-.011-.006,0-.012-.008-.007,0-.012-.007-.008,0-.014-.005-.008,0-.014,0-.008,0-.014,0-.01,0h-.881a.235.235,0,0,0-.236.235v5.271a.235.235,0,0,0,.236.235h.848a.236.236,0,0,0,.236-.235v-3.131l2.419,3.266a.234.234,0,0,0,.06.058l0,0,.014.009.007,0,.012.005.011,0,.007,0,.016.005h0a.232.232,0,0,0,.06.008h.848a.235.235,0,0,0,.236-.235V285.64a.235.235,0,0,0-.236-.235" transform="translate(-409.603 -285.405)" fill="#00c300"/>
            <path id="Path_72" data-name="Path 72" d="M397.753,289.827h-2.306v-4.186a.235.235,0,0,0-.235-.236h-.849a.236.236,0,0,0-.236.236v5.271h0a.235.235,0,0,0,.066.163l0,0,0,0a.234.234,0,0,0,.163.066h3.39a.235.235,0,0,0,.235-.236v-.849a.236.236,0,0,0-.235-.236" transform="translate(-394.127 -285.405)" fill="#00c300"/>
            <path id="Path_73" data-name="Path 73" d="M439.228,286.725a.235.235,0,0,0,.235-.236v-.848a.236.236,0,0,0-.235-.236h-3.39a.234.234,0,0,0-.163.066l0,0,0,0a.237.237,0,0,0-.065.162h0v5.27h0a.235.235,0,0,0,.066.163l0,0,0,0a.235.235,0,0,0,.163.066h3.39a.235.235,0,0,0,.235-.236v-.849a.235.235,0,0,0-.235-.236h-2.305v-.891h2.305a.235.235,0,0,0,.235-.236v-.848a.235.235,0,0,0-.235-.236h-2.305v-.891Z" transform="translate(-423.031 -285.405)" fill="#00c300"/>
          </g>
        </g>
      </g>
    </g>
  </g>
</svg>
