<?xml version="1.0" encoding="utf-8"?>
<!-- Generator: Adobe Illustrator 23.0.3, SVG Export Plug-In . SVG Version: 6.00 Build 0)  -->
<svg version="1.1" id="圖層_1" xmlns="http://www.w3.org/2000/svg" xmlns:xlink="http://www.w3.org/1999/xlink" x="0px" y="0px"
	 viewBox="0 0 791.4 168.7" style="enable-background:new 0 0 791.4 168.7;" xml:space="preserve">
<style type="text/css">
	.st0{stroke:#3E3A39;stroke-width:0.75;stroke-miterlimit:10;}
</style>
<title>logo</title>
<g>
	<g id="图层_1">
		<rect x="273.8" y="63.1" class="st0" width="6.7" height="42.3"/>
		<rect x="308.4" y="63.1" class="st0" width="6.7" height="42.3"/>
		<rect x="305.2" y="101.7" class="st0" width="4.8" height="3.6"/>
		<rect x="278.5" y="63.1" class="st0" width="4.8" height="3.6"/>
		<rect x="278.2" y="63.1" class="st0" width="1.8" height="3.6"/>
		<polygon class="st0" points="279.3,63.1 272.6,63.1 272.6,64.6 276.5,66.7 279.3,66.7 		"/>
		<rect x="758.8" y="63.1" class="st0" width="6.7" height="42.3"/>
		<rect x="761.8" y="63.1" class="st0" width="29.2" height="5.1"/>
		<rect x="761.8" y="100.3" class="st0" width="29.2" height="5.1"/>
		<rect x="761.8" y="81.7" class="st0" width="24.4" height="5.1"/>
		<polygon class="st0" points="764.3,63.1 757.6,63.1 757.6,64.6 761.5,66.7 764.3,66.7 		"/>
		<polygon class="st0" points="288.5,63.1 280.9,63.1 300.3,105.4 308,105.4 		"/>
		<polygon class="st0" points="374.6,81.8 367.3,82.4 384.7,105.4 392.3,105.4 		"/>
		<polygon class="st0" points="383.4,63.1 391,63.1 374,83.2 366.3,83.2 		"/>
		<polygon class="st0" points="362.3,81.3 359.8,81.3 359.2,81.3 359.2,86 359.8,86 362.3,86 371,86 371,81.3 		"/>
		<polygon class="st0" points="463.2,81.3 456.5,81.3 455,81.3 455,86 456.5,86 463.2,86 484.3,86 484.3,81.3 		"/>
		<rect x="448.9" y="63.1" class="st0" width="6.7" height="42.3"/>
		<rect x="453.3" y="63.1" class="st0" width="1.8" height="3.6"/>
		<polygon class="st0" points="454.8,63.1 448.1,63.1 448.1,64.6 452,66.7 454.8,66.7 		"/>
		<rect x="449.3" y="63.1" class="st0" width="6.7" height="42.3"/>
		<polygon class="st0" points="486.9,63.1 480.2,63.1 480.2,64.6 484.1,66.7 486.9,66.7 		"/>
		<rect x="481.4" y="63.1" class="st0" width="6.7" height="42.3"/>
		<polygon class="st0" points="360.9,63.1 354.2,63.1 354.2,64.6 358.1,66.7 360.9,66.7 		"/>
		<rect x="355.4" y="63.1" class="st0" width="6.7" height="42.3"/>
		<rect x="226.5" y="63.1" class="st0" width="6.7" height="42.3"/>
		<rect x="230.9" y="63.1" class="st0" width="1.8" height="3.6"/>
		<polygon class="st0" points="232,63.1 225.3,63.1 225.3,64.6 229.2,66.7 232,66.7 		"/>
		<rect x="226.5" y="63.1" class="st0" width="6.7" height="42.3"/>
		<polygon class="st0" points="227.7,105.4 234.3,105.4 234.3,103.8 230.4,101.7 227.7,101.7 		"/>
		<polygon class="st0" points="232,105.4 225.3,105.4 225.3,103.8 229.2,101.7 232,101.7 		"/>
		<path class="st0" d="M553.3,61.6h-4.5c-10.5,0-19,8.5-19,19v6.1c0,10.5,8.5,19,19,19h4.5c10.5,0,19-8.5,19-19v-6.2
			C572.3,70.1,563.8,61.6,553.3,61.6z M564.9,86.9c0,7.7-6.2,13.9-13.9,13.9c0,0,0,0,0,0l0,0c-7.6,0-13.8-6.2-13.8-13.9v-6.4
			c0-7.6,6.2-13.9,13.8-13.9l0,0c7.7,0,13.9,6.2,13.9,13.9L564.9,86.9z"/>
		<polygon class="st0" points="616.3,63.1 609.6,63.1 609.6,80.3 616.3,95.3 		"/>
		<rect x="614" y="63.1" class="st0" width="1.8" height="3.6"/>
		<polygon class="st0" points="615.1,63.1 608.5,63.1 608.5,64.6 612.4,66.7 615.1,66.7 		"/>
		<rect x="643.1" y="63.1" class="st0" width="6.7" height="42.3"/>
		<rect x="647.5" y="63.1" class="st0" width="1.8" height="3.6"/>
		<polygon class="st0" points="648.6,63.1 641.9,63.1 641.9,64.6 645.8,66.7 648.6,66.7 		"/>
		<path class="st0" d="M643.9,79.9v7.5c0,13.7-6.9,12.4-14.2,12.4c-9.5,0-13.5-4.7-13.5-12.4v-7.5h-6.6v8.6
			c0,9.8,7.5,17.7,16.8,17.7h6.6c9.3,0,16.8-7.9,16.8-17.7v-8.6H643.9z"/>
		<path class="st0" d="M616.3,91.4c-0.5-1.3-0.7-2.6-0.7-4v-7.5h-6v8.6c0,4.5,1.6,8.8,4.6,12.2h2L616.3,91.4z"/>
		<path class="st0" d="M709.6,82.5l-0.4-0.1c-2.7-0.4-5.4-1.1-8-1.9c-3.1-1-5.7-2.1-6.4-4c-1.7-4.4,1-8.7,9.4-8.7
			c7.9,0,9.7,2.4,10.1,5.6h8.1c0-6.6-8-10.6-14.9-10.6h-6.6c-7.1,0-15.3,5.6-13.4,14.3c0.2,0.7,0.4,1.4,0.7,2.1
			c0.9,1.7,2.2,3.1,3.9,4c2.5,1.3,5.3,2.2,8.1,2.7l2.6,0.5c2.4,0.4,4.8,0.9,7.1,1.5c5.3,1.6,6.3,6,4.6,9.8
			c-1.6,3.4-5.2,4.2-10.3,4.2c-7.2,0-9.1-4.4-9.1-8h-8.1c0,7.8,7.9,12.8,14.7,12.9h5.6c9.2-0.1,16.5-6.7,14.7-16.6
			C721.5,87.7,718.2,83.6,709.6,82.5z"/>
		<path d="M84.3,0C37.8,0,0,37.8,0,84.3s37.8,84.3,84.3,84.3s84.3-37.8,84.3-84.3C168.7,37.8,130.9,0,84.3,0C84.4,0,84.3,0,84.3,0
			 M27.8,130.5c-3.7,0-6.8-3-6.8-6.8s3-6.8,6.8-6.8s6.8,3,6.8,6.8l0,0C34.5,127.5,31.5,130.5,27.8,130.5 M51.4,119.5
			c-3.4,0-6.1-2.7-6.1-6.1c0-3.4,2.7-6.1,6.1-6.1s6.1,2.7,6.1,6.1c0,0,0,0,0,0C57.5,116.8,54.7,119.5,51.4,119.5 M70.6,104.4
			c-2.9,0-5.3-2.4-5.3-5.3s2.4-5.3,5.3-5.3s5.3,2.4,5.3,5.3c0,0,0,0,0,0C75.9,102,73.5,104.4,70.6,104.4 M84.3,87.1
			c-2.4,0-4.4-2-4.4-4.4c0-2.4,2-4.4,4.4-4.4s4.4,2,4.4,4.4c0,0,0,0,0,0C88.7,85.2,86.8,87.1,84.3,87.1 M98.1,104.4
			c-2.9,0-5.3-2.4-5.3-5.3s2.4-5.3,5.3-5.3s5.3,2.4,5.3,5.3c0,0,0,0,0,0C103.4,102,101,104.4,98.1,104.4
			C98.1,104.4,98.1,104.4,98.1,104.4 M117.3,119.5c-3.4,0-6.1-2.7-6.1-6.1c0-3.4,2.7-6.1,6.1-6.1c3.4,0,6.1,2.7,6.1,6.1
			C123.4,116.8,120.6,119.5,117.3,119.5C117.3,119.5,117.3,119.5,117.3,119.5 M140.9,130.5c-3.7,0-6.8-3-6.8-6.8s3-6.8,6.8-6.8
			s6.8,3,6.8,6.8l0,0C147.6,127.5,144.6,130.5,140.9,130.5"/>
	</g>
</g>
</svg>
